<svg width="50" height="50" viewBox="0 0 50 50" fill="none" xmlns="http://www.w3.org/2000/svg">
<g id="vuesax/linear/discover">
<g id="discover">
<path id="Vector" d="M36.4125 4.59202L16.1911 9.66264C13.2383 10.3957 10.2448 13.3892 9.51174 16.342L4.44111 36.5634C2.91382 42.6726 6.66078 46.44 12.7903 44.9127L33.0117 39.8624C35.9442 39.1293 38.958 36.1154 39.6911 33.183L44.7618 12.9412C46.2891 6.83205 42.5217 3.06472 36.4125 4.59202Z" stroke="#132AFD" stroke-width="3.05459" stroke-linecap="round" stroke-linejoin="round"/>
<path id="Vector_2" d="M24.6014 31.8797C28.5378 31.8797 31.7288 28.6887 31.7288 24.7523C31.7288 20.816 28.5378 17.6249 24.6014 17.6249C20.6651 17.6249 17.474 20.816 17.474 24.7523C17.474 28.6887 20.6651 31.8797 24.6014 31.8797Z" stroke="#132AFD" stroke-width="3.05459" stroke-linecap="round" stroke-linejoin="round"/>
</g>
</g>
</svg>
