<svg width="50" height="50" viewBox="0 0 50 50" fill="none" xmlns="http://www.w3.org/2000/svg">
<g id="vuesax/linear/note-2">
<g id="note-2">
<path id="Vector" d="M44.2734 21.4491L42.2777 29.9612C40.5671 37.3126 37.1867 40.2857 30.8332 39.6748C29.815 39.5934 28.7153 39.4101 27.5342 39.125L24.1131 38.3104C15.6213 36.2944 12.9943 32.0994 14.99 23.5873L16.9857 15.0548C17.3929 13.3238 17.8817 11.8169 18.4926 10.5747C20.8752 5.64663 24.9276 4.32298 31.7292 5.93173L35.13 6.72593C43.6625 8.72159 46.269 12.9369 44.2734 21.4491Z" stroke="#132AFD" stroke-width="3.05459" stroke-linecap="round" stroke-linejoin="round"/>
<path id="Vector_2" d="M30.8325 39.6748C29.5699 40.5301 27.9815 41.2428 26.047 41.8741L22.8295 42.933C14.745 45.5396 10.4889 43.3607 7.86194 35.2762L5.25535 27.2324C2.64877 19.1479 4.80734 14.8715 12.8918 12.2649L16.1093 11.206C16.9443 10.9413 17.7385 10.7173 18.4919 10.5747C17.881 11.8169 17.3923 13.3238 16.985 15.0548L14.9893 23.5873C12.9937 32.0994 15.6206 36.2944 24.1124 38.3104L27.5335 39.125C28.7146 39.4101 29.8143 39.5933 30.8325 39.6748Z" stroke="#132AFD" stroke-width="3.05459" stroke-linecap="round" stroke-linejoin="round"/>
<path id="Vector_3" d="M25.905 17.5595L35.7815 20.0643" stroke="#132AFD" stroke-width="3.05459" stroke-linecap="round" stroke-linejoin="round"/>
<path id="Vector_4" d="M23.9094 25.4404L29.8149 26.9473" stroke="#132AFD" stroke-width="3.05459" stroke-linecap="round" stroke-linejoin="round"/>
</g>
</g>
</svg>
